<?xml version="1.0" encoding="utf-8"?>
<!-- Generator: Adobe Illustrator 23.0.2, SVG Export Plug-In . SVG Version: 6.00 Build 0)  -->
<svg version="1.1" id="Layer_1" xmlns="http://www.w3.org/2000/svg" xmlns:xlink="http://www.w3.org/1999/xlink" x="0px" y="0px"
	 viewBox="0 0 612 150.64" style="enable-background:new 0 0 612 150.64;" xml:space="preserve">
<style type="text/css">
	.st0{fill:#F7F7F7;}
</style>
<g>
	<path class="st0" d="M84.74,43.53h7.47v33.9h21.03v6.32H84.74V43.53z"/>
	<path class="st0" d="M144.43,65.76v17.98h-6.78v-3.73c-1.72,2.64-5.06,4.14-9.65,4.14c-7.01,0-11.43-3.85-11.43-9.19
		c0-5.11,3.45-9.13,12.75-9.13h7.93v-0.46c0-4.19-2.53-6.66-7.64-6.66c-3.45,0-7.01,1.15-9.31,3.04l-2.82-5.23
		c3.27-2.53,8.04-3.79,12.98-3.79C139.32,52.72,144.43,56.92,144.43,65.76z M137.25,74.15v-3.56h-7.41c-4.88,0-6.2,1.84-6.2,4.08
		c0,2.59,2.18,4.25,5.86,4.25C133,78.92,136.04,77.31,137.25,74.15z"/>
	<path class="st0" d="M183.32,53.07v30.68h-6.84v-3.91c-2.3,2.82-5.92,4.31-9.88,4.31c-7.87,0-13.21-4.31-13.21-13.56V53.07h7.18
		v16.55c0,5.57,2.64,8.21,7.18,8.21c5,0,8.39-3.1,8.39-9.25V53.07H183.32z"/>
	<path class="st0" d="M210.49,52.72v6.84c-0.63-0.12-1.15-0.17-1.67-0.17c-5.46,0-8.9,3.22-8.9,9.48v14.88h-7.18V53.07h6.84v4.48
		C201.65,54.33,205.38,52.72,210.49,52.72z"/>
	<path class="st0" d="M245.02,70.7h-24.07c0.86,4.48,4.6,7.35,9.94,7.35c3.45,0,6.15-1.09,8.33-3.33l3.85,4.42
		c-2.76,3.27-7.07,5-12.35,5c-10.28,0-16.95-6.61-16.95-15.74c0-9.13,6.72-15.68,15.86-15.68c8.96,0,15.51,6.26,15.51,15.86
		C245.13,69.15,245.08,70.01,245.02,70.7z M220.89,65.94h17.41c-0.57-4.42-3.96-7.47-8.67-7.47
		C224.97,58.47,221.58,61.45,220.89,65.94z"/>
	<path class="st0" d="M282.24,66.17v17.58h-7.18V67.08c0-5.46-2.7-8.1-7.3-8.1c-5.11,0-8.56,3.1-8.56,9.25v15.51h-7.18V53.07h6.84
		v3.96c2.36-2.81,6.09-4.31,10.57-4.31C276.79,52.72,282.24,56.92,282.24,66.17z"/>
	<path class="st0" d="M335.38,63.18h7.07v16.03c-4.19,3.39-10.05,5.11-15.74,5.11c-12.47,0-21.66-8.68-21.66-20.68
		s9.19-20.68,21.77-20.68c6.72,0,12.35,2.24,16.14,6.55l-4.71,4.6c-3.16-3.16-6.78-4.6-11.09-4.6c-8.56,0-14.59,5.8-14.59,14.13
		c0,8.16,6.03,14.13,14.53,14.13c2.87,0,5.69-0.57,8.27-2.07V63.18z"/>
	<path class="st0" d="M369.33,52.72v6.84c-0.63-0.12-1.15-0.17-1.67-0.17c-5.46,0-8.91,3.22-8.91,9.48v14.88h-7.18V53.07h6.84v4.48
		C360.48,54.33,364.21,52.72,369.33,52.72z"/>
	<path class="st0" d="M400.92,65.76v17.98h-6.78v-3.73c-1.72,2.64-5.06,4.14-9.65,4.14c-7.01,0-11.43-3.85-11.43-9.19
		c0-5.11,3.45-9.13,12.75-9.13h7.93v-0.46c0-4.19-2.53-6.66-7.64-6.66c-3.45,0-7.01,1.15-9.31,3.04l-2.81-5.23
		c3.27-2.53,8.04-3.79,12.98-3.79C395.81,52.72,400.92,56.92,400.92,65.76z M393.74,74.15v-3.56h-7.41c-4.88,0-6.21,1.84-6.21,4.08
		c0,2.59,2.18,4.25,5.86,4.25C389.49,78.92,392.54,77.31,393.74,74.15z"/>
	<path class="st0" d="M440.33,66.17v17.58h-7.18V67.08c0-5.46-2.7-8.1-7.3-8.1c-5.11,0-8.56,3.1-8.56,9.25v15.51h-7.18V53.07h6.84
		v3.96c2.36-2.81,6.09-4.31,10.57-4.31C434.87,52.72,440.33,56.92,440.33,66.17z"/>
	<path class="st0" d="M475.14,65.76v17.98h-6.78v-3.73c-1.72,2.64-5.06,4.14-9.65,4.14c-7.01,0-11.43-3.85-11.43-9.19
		c0-5.11,3.45-9.13,12.75-9.13h7.93v-0.46c0-4.19-2.53-6.66-7.64-6.66c-3.45,0-7.01,1.15-9.31,3.04l-2.81-5.23
		c3.27-2.53,8.04-3.79,12.98-3.79C470.03,52.72,475.14,56.92,475.14,65.76z M467.96,74.15v-3.56h-7.41c-4.88,0-6.21,1.84-6.21,4.08
		c0,2.59,2.18,4.25,5.86,4.25C463.71,78.92,466.75,77.31,467.96,74.15z"/>
	<path class="st0" d="M502.77,82.08c-1.72,1.38-4.31,2.07-6.89,2.07c-6.72,0-10.57-3.56-10.57-10.34V59.04h-5.06V53.3h5.06v-7.01
		h7.18v7.01h8.22v5.75h-8.22v14.59c0,2.99,1.49,4.6,4.25,4.6c1.49,0,2.93-0.4,4.02-1.26L502.77,82.08z"/>
	<path class="st0" d="M505.13,68.41c0-9.19,6.89-15.68,16.32-15.68c9.54,0,16.37,6.49,16.37,15.68s-6.84,15.74-16.37,15.74
		C512.02,84.15,505.13,77.6,505.13,68.41z M530.58,68.41c0-5.86-3.91-9.59-9.13-9.59c-5.17,0-9.08,3.73-9.08,9.59
		s3.91,9.59,9.08,9.59C526.67,78,530.58,74.27,530.58,68.41z"/>
	<path class="st0" d="M82.19,109.54V98.11h2.87v11.31c0,4.45,2.04,6.46,5.66,6.46c3.62,0,5.69-2.01,5.69-6.46V98.11h2.79v11.43
		c0,5.83-3.19,8.9-8.5,8.9C85.4,118.44,82.19,115.37,82.19,109.54z"/>
	<path class="st0" d="M105.08,98.11h2.87v20.1h-2.87V98.11z"/>
	<path class="st0" d="M121.71,98.11h8.47c6.46,0,10.85,4.08,10.85,10.05s-4.39,10.05-10.85,10.05h-8.47V98.11z M130.01,115.71
		c4.97,0,8.16-3.04,8.16-7.55c0-4.51-3.19-7.55-8.16-7.55h-5.43v15.1H130.01z"/>
	<path class="st0" d="M158.73,111.52h-12.35c0.34,2.67,2.5,4.45,5.51,4.45c1.78,0,3.27-0.6,4.39-1.84l1.52,1.78
		c-1.38,1.61-3.48,2.47-6,2.47c-4.91,0-8.18-3.25-8.18-7.78c0-4.51,3.25-7.75,7.64-7.75c4.39,0,7.52,3.16,7.52,7.84
		C158.79,110.92,158.76,111.26,158.73,111.52z M146.38,109.54h9.76c-0.29-2.56-2.21-4.37-4.88-4.37
		C148.62,105.17,146.67,106.96,146.38,109.54z"/>
	<path class="st0" d="M160.69,116.6l1.15-2.18c1.29,0.92,3.36,1.58,5.34,1.58c2.56,0,3.62-0.77,3.62-2.07
		c0-3.42-9.62-0.46-9.62-6.52c0-2.73,2.44-4.57,6.35-4.57c1.98,0,4.22,0.52,5.54,1.38l-1.18,2.18c-1.38-0.89-2.9-1.21-4.39-1.21
		c-2.41,0-3.59,0.89-3.59,2.1c0,3.59,9.65,0.66,9.65,6.58c0,2.76-2.53,4.51-6.58,4.51C164.45,118.38,161.95,117.61,160.69,116.6z"/>
	<path class="st0" d="M176.51,98.28c0-1,0.8-1.81,1.87-1.81s1.87,0.78,1.87,1.75c0,1.03-0.78,1.84-1.87,1.84
		C177.32,100.06,176.51,99.29,176.51,98.28z M177,102.99h2.76v15.22H177V102.99z"/>
	<path class="st0" d="M199.57,102.99v13.15c0,5.37-2.73,7.81-7.9,7.81c-2.79,0-5.6-0.77-7.27-2.27l1.32-2.12
		c1.41,1.21,3.62,1.98,5.86,1.98c3.59,0,5.23-1.67,5.23-5.11v-1.21c-1.32,1.58-3.3,2.35-5.48,2.35c-4.39,0-7.73-2.99-7.73-7.38
		c0-4.39,3.33-7.35,7.73-7.35c2.27,0,4.34,0.83,5.63,2.5v-2.35H199.57z M196.87,110.2c0-2.96-2.18-4.94-5.23-4.94
		c-3.07,0-5.26,1.98-5.26,4.94c0,2.93,2.18,4.97,5.26,4.97C194.69,115.17,196.87,113.13,196.87,110.2z"/>
	<path class="st0" d="M219.28,109.45v8.76h-2.76v-8.44c0-2.99-1.49-4.45-4.11-4.45c-2.93,0-4.82,1.75-4.82,5.05v7.84h-2.76v-15.22
		h2.64v2.3c1.12-1.55,3.07-2.44,5.48-2.44C216.66,102.85,219.28,104.97,219.28,109.45z"/>
	<path class="st0" d="M238.18,111.52h-12.35c0.34,2.67,2.5,4.45,5.51,4.45c1.78,0,3.27-0.6,4.39-1.84l1.52,1.78
		c-1.38,1.61-3.48,2.47-6,2.47c-4.91,0-8.18-3.25-8.18-7.78c0-4.51,3.25-7.75,7.64-7.75c4.39,0,7.52,3.16,7.52,7.84
		C238.23,110.92,238.2,111.26,238.18,111.52z M225.83,109.54h9.76c-0.29-2.56-2.21-4.37-4.88-4.37
		C228.07,105.17,226.11,106.96,225.83,109.54z"/>
	<path class="st0" d="M250.24,102.85v2.67c-0.23-0.03-0.43-0.03-0.63-0.03c-2.96,0-4.8,1.81-4.8,5.14v7.58h-2.76v-15.22h2.64v2.56
		C245.67,103.77,247.57,102.85,250.24,102.85z"/>
	<path class="st0" d="M273.62,109.02v9.19h-2.61v-2.01c-0.92,1.38-2.61,2.18-5,2.18c-3.45,0-5.63-1.84-5.63-4.48
		c0-2.44,1.58-4.45,6.12-4.45h4.36v-0.55c0-2.33-1.35-3.68-4.08-3.68c-1.81,0-3.65,0.63-4.82,1.64l-1.15-2.07
		c1.58-1.26,3.85-1.95,6.29-1.95C271.26,102.85,273.62,104.86,273.62,109.02z M270.86,113.56v-2.12h-4.25c-2.73,0-3.5,1.06-3.5,2.35
		c0,1.52,1.26,2.47,3.36,2.47C268.54,116.26,270.17,115.31,270.86,113.56z"/>
	<path class="st0" d="M293.18,109.45v8.76h-2.76v-8.44c0-2.99-1.49-4.45-4.11-4.45c-2.93,0-4.82,1.75-4.82,5.05v7.84h-2.76v-15.22
		h2.64v2.3c1.12-1.55,3.07-2.44,5.48-2.44C290.57,102.85,293.18,104.97,293.18,109.45z"/>
	<path class="st0" d="M312.74,96.9v21.31h-2.64v-2.41c-1.23,1.72-3.19,2.58-5.43,2.58c-4.45,0-7.7-3.13-7.7-7.78
		c0-4.65,3.25-7.75,7.7-7.75c2.15,0,4.05,0.8,5.31,2.44V96.9H312.74z M310.01,110.6c0-3.25-2.21-5.34-5.11-5.34
		c-2.93,0-5.14,2.1-5.14,5.34c0,3.24,2.21,5.37,5.14,5.37C307.8,115.97,310.01,113.85,310.01,110.6z"/>
	<path class="st0" d="M328.97,100.61v7.01h10.08v2.47h-10.08v8.13h-2.87v-20.1h14.19v2.5H328.97z"/>
	<path class="st0" d="M351.83,102.85v2.67c-0.23-0.03-0.43-0.03-0.63-0.03c-2.96,0-4.8,1.81-4.8,5.14v7.58h-2.76v-15.22h2.64v2.56
		C347.27,103.77,349.16,102.85,351.83,102.85z"/>
	<path class="st0" d="M353.67,110.6c0-4.54,3.36-7.75,7.93-7.75c4.57,0,7.9,3.22,7.9,7.75c0,4.54-3.33,7.78-7.9,7.78
		C357.03,118.38,353.67,115.14,353.67,110.6z M366.71,110.6c0-3.25-2.18-5.34-5.11-5.34c-2.93,0-5.14,2.1-5.14,5.34
		c0,3.24,2.21,5.37,5.14,5.37C364.53,115.97,366.71,113.85,366.71,110.6z"/>
	<path class="st0" d="M387.76,109.45v8.76H385v-8.44c0-2.99-1.49-4.45-4.11-4.45c-2.93,0-4.82,1.75-4.82,5.05v7.84h-2.76v-15.22
		h2.64v2.3c1.12-1.55,3.07-2.44,5.49-2.44C385.15,102.85,387.76,104.97,387.76,109.45z"/>
	<path class="st0" d="M401.44,117.32c-0.83,0.72-2.1,1.06-3.33,1.06c-3.07,0-4.82-1.69-4.82-4.77v-8.36h-2.58v-2.27h2.58v-3.33h2.76
		v3.33h4.36v2.27h-4.36v8.24c0,1.64,0.86,2.56,2.38,2.56c0.8,0,1.58-0.26,2.15-0.72L401.44,117.32z"/>
	<path class="st0" d="M427.49,115.71v2.5H412.9v-20.1h14.19v2.5h-11.31v6.17h10.08v2.44h-10.08v6.49H427.49z"/>
	<path class="st0" d="M446.18,109.45v8.76h-2.76v-8.44c0-2.99-1.49-4.45-4.11-4.45c-2.93,0-4.82,1.75-4.82,5.05v7.84h-2.76v-15.22
		h2.64v2.3c1.12-1.55,3.07-2.44,5.49-2.44C443.57,102.85,446.18,104.97,446.18,109.45z"/>
	<path class="st0" d="M465.74,96.9v21.31h-2.64v-2.41c-1.24,1.72-3.19,2.58-5.43,2.58c-4.45,0-7.7-3.13-7.7-7.78
		c0-4.65,3.25-7.75,7.7-7.75c2.15,0,4.05,0.8,5.31,2.44V96.9H465.74z M463.01,110.6c0-3.25-2.21-5.34-5.11-5.34
		c-2.93,0-5.14,2.1-5.14,5.34c0,3.24,2.21,5.37,5.14,5.37C460.8,115.97,463.01,113.85,463.01,110.6z"/>
	<path class="st0" d="M479.1,98.11h8.47c6.46,0,10.86,4.08,10.86,10.05s-4.39,10.05-10.86,10.05h-8.47V98.11z M487.4,115.71
		c4.97,0,8.16-3.04,8.16-7.55c0-4.51-3.19-7.55-8.16-7.55h-5.43v15.1H487.4z"/>
	<path class="st0" d="M516.12,111.52h-12.35c0.34,2.67,2.5,4.45,5.51,4.45c1.78,0,3.27-0.6,4.39-1.84l1.52,1.78
		c-1.38,1.61-3.47,2.47-6,2.47c-4.91,0-8.18-3.25-8.18-7.78c0-4.51,3.25-7.75,7.64-7.75s7.52,3.16,7.52,7.84
		C516.18,110.92,516.15,111.26,516.12,111.52z M503.77,109.54h9.76c-0.29-2.56-2.21-4.37-4.88-4.37
		C506.01,105.17,504.06,106.96,503.77,109.54z"/>
	<path class="st0" d="M533.18,102.99l-6.66,15.22h-2.81l-6.66-15.22h2.87l5.23,12.21l5.34-12.21H533.18z"/>
</g>
</svg>
